<svg id="_Layer_" data-name=" Layer " xmlns="http://www.w3.org/2000/svg" viewBox="0 0 2080.94 1374.78"><title>family</title><path d="M249.37,1370.58S-160.21,1000.24,70.45,499.67C181.11,259.51,475.83,203.15,565.16,252.29,683,317.1,839.19,142,1176.89,21.84c253.81-90.34,828.33,93.86,641.23,660.43-113.49,343.68,323.39,253.28,255.63,692.51Z" style="fill:#83b3db"/><path d="M974.17,280.05s46.19,21.85,56.69,19.1,50.37-9.8,56-7.32c0,0,6.35,10.13,1.56,16.79s-43.59,24.69-57.6,25.34-67.21-9-78.5-17.8Z" style="fill:#e8945b"/><path d="M1085.43,292s17.81-7.39,23.64.87,9.14,16.63,8.41,20.86-12.75,6.1-17.56,2.81-16.72-7.89-16.72-7.89Z" style="fill:#e8945b"/><path d="M1170.57,1328.85s-9.84,15.91-10,34.36a7.4,7.4,0,0,0,7.34,7.46h61.37a9.11,9.11,0,0,0,9.13-9.11,8.84,8.84,0,0,0-.27-2.23c-2.86-11.22-9-28.18-21.21-38.48C1197.35,1304.43,1170.57,1328.85,1170.57,1328.85Z" style="fill:#163560"/><path d="M1073.58,1312.57s-3.53,56.83-14.52,57.65c-1.46.1-55.77.1-55.77.1H933.23s1.18-17.1,21.45-20.63,54.18-17.78,66.46-44.56C1034.05,1277,1073.58,1312.57,1073.58,1312.57Z" style="fill:#163560"/><path d="M1102.92,961.46c-2.45,31.57-2.76,56.5.47,68.31,14.46,52.86-26.05,291.55-26.05,291.55-29.87,14.28-72.28-.16-72.28-.16,2.57-33.06-13.15-329-27.77-509.6-6.13-75.81-10.72-128.85-10.72-128.85l178.91-20.83S1111.4,851.8,1102.92,961.46Z" style="fill:#2b478b"/><path d="M1145.48,661.88s-34.08,189.92-42.56,299.58L977.29,811.56c-6.13-75.81-10.72-128.85-10.72-128.85Z" style="fill:#233862"/><path d="M1057.72,702.38s90.56,527.35,106.15,629.47c0,0,33.9,9.47,68.55-5.2,0,0,4.48-245.06-7.38-318.88s6.32-302-12.79-323.25S1057.72,702.38,1057.72,702.38Z" style="fill:#2b478b"/><path d="M1067.05,252.69s-7,46.87-3.91,60.86,49.61,21.61,69.08,10.05,13.62-15.87,13.62-15.87-3-53.65-5.7-57.48S1067.05,252.69,1067.05,252.69Z" style="fill:#ffb27d"/><path d="M1216.88,538.69c6.16-58.88,4.58-103.18-1.22-136.51-17-97.83-70.3-101.09-70.3-100.46,0,13.17-28.32,25.32-51.16,23.82-19.26-1.26-31.75-15.89-31.75-23.82,0-.06-.36-.06-1,0a330.66,330.66,0,0,0-49.41,4.2c-15.66,2.7-30.65,7.15-37.69,14.48-3.63,3.78-16.59,14.37-33.23,28.77-42.39,36.65-108.67,98-105.74,134.58,0,0,81.93,60.16,133.85,22.45-2.83,97.91-20.6,201.61-16.24,201.54,0,0,28.94,25.06,116.87,25.06,48.07,0,82.84-4.12,107-8.89,32.87-6.48,46-14.14,46-14.14C1230.08,709.67,1214.75,559,1216.88,538.69Z" style="fill:#e1251b"/><path d="M1222.76,709.78s-13.08,7.66-46,14.14c-45.43-20.12-135.6-72.13-139.13-159.45-4.63-116.17,137.2-185.34,137.2-185.34s19,10.58,40.83,23.05c5.8,33.33,7.38,77.63,1.22,136.51C1214.75,559,1230.08,709.67,1222.76,709.78Z" style="fill:#e1251b"/><path d="M1066.31,258s18.06,25.46,37.16,25.69,38.59-25.29,38.59-25.29Z" style="fill:#e8945b"/><path d="M1064.56,256.7c5,3.94,16.18,9.37,25.32,13a31.23,31.23,0,0,0,21.64.46c10.54-3.63,26.49-9.31,30.54-11.75,9.56-5.8,8.94-17.53,9.43-33.84.59-19.31,2.54-34.48.38-45.61-2.56-13.32-11-20.89-34.64-23-43.4-3.77-61.47,7.1-62.23,21.65-.19,3.9-.38,7.63-.5,11.16C1052.76,234.15,1056.35,250.23,1064.56,256.7Z" style="fill:#ffb27d"/><path d="M1054.74,183a18.23,18.23,0,0,1,20.46-6.37c13.35,4.11,14.72,15.52,37.55,13.69s28.3-12.62,32.41-7.22,6.48,37.31,6.48,37.31,45.89-104.64-47.12-104.64c0,0-95.85-5.79-49.78,100.57Z" style="fill:#2c3a64"/><path d="M885.74,282.08l.12.07C885.76,282.2,885.74,282.08,885.74,282.08Z" style="fill:#ffb27d"/><path d="M1099.81,603.88a52.33,52.33,0,0,1-30,9.58s-18.16-20-33.46-39.36c-9.91-12.54-18.61-24.8-20.41-31.17-4.56-16.2-90-20.76-100.45-32.18s42.44-40,42.44-40,86.72,13.27,99.76,30.3c5.19,6.79,12.91,24.46,20.33,43.29C1089.27,572.77,1099.81,603.88,1099.81,603.88Z" style="fill:#e8945b"/><path d="M978.43,366.13s16.43-31.91,24.55-31-18.66,66.05-21.09,97.7S978.43,366.13,978.43,366.13Z" style="fill:#e1251b"/><path d="M1029.86,585.81a481.55,481.55,0,0,1-28.07,56c-.06.11-.13.22-.2.33h-.26c-2.77,0-26.58-.54-28.91-10.1,0,0-.76-33.09.55-59.37.59-11.75,1.6-22.13,3.27-27.61,0,0-129.14-.87-126.87-37.4s69.78-55.89,108.63-37c0,0,51.47,18.7,78.55,43.4C1049.82,526.25,1041.64,557.33,1029.86,585.81Z" style="fill:#ffb27d"/><path d="M853.22,456.4s-17.2,25.27-13.17,48.85,53.09,36.18,87.42,37.68c0,0,98.19-22.5,83-61.64C1007,472.41,853.22,456.4,853.22,456.4Z" style="fill:#2b478b"/><path d="M888.87,145.85s-15.59-31.92-53.26-12.4-1,93.05-20.76,111.43S822,275.29,818,288.47s7.45,28.17,33.81,26.4,54.12-.34,66-23.4,9.2-73.8,4.6-80.93S888.87,145.85,888.87,145.85Z" style="fill:#aa443e"/><path d="M949.91,320.8l-64-38.65c.36-.14,1.65-2.08,6.44-15.93a77.71,77.71,0,0,0,3.66-15.1,11.52,11.52,0,0,1,.14-1.18,41.5,41.5,0,0,0,.17-9.32l14,5.08,26,9.4c-.31,6.58.62,11.21,2,14.38,3.38,7.72,9.7,7.77,9.88,7.77Z" style="fill:#ffb27d"/><path d="M938.28,269.48A48.08,48.08,0,0,1,896,251.12c-.47-.6-.7-.93-.7-.93l.84-.25c2-.61,7.57-2.27,14.21-4.24l26,9.4C936,261.68,936.88,266.31,938.28,269.48Z" style="fill:#ed985f"/><path d="M939.53,260.48s-55.72,6.12-56.86-31.56S873.3,174,911.85,170.65s47.66,10.52,49.93,23.27C968.87,233.74,955.23,258.79,939.53,260.48Z" style="fill:#ffb27d"/><path d="M914.84,189.05c-19.71-5-12.18,29.94-17.16,27.55-5.57-2.68-15.15-2.64-13.64,4.09s3.69,9.14,4.83,13.34,0,12.53-4.59,10.85-47.22-50.37-17.12-88.29S987,142,958.77,181.7C953.8,188.67,928.88,192.6,914.84,189.05Z" style="fill:#aa443e"/><path d="M986.4,470.69s-16.74,8.88-43.1,8.46c-16.79-.25-52.46-7.55-75.38-15.83-13.07-4.7-22-9.73-20.93-13.95,1.55-6.08,12.74-52.78,23.08-96,9.46-39.52,18.2-76.12,18.2-76.12s26.1,18.54,41.3,12,13.26-13.94,13.26-13.94,17.92-2.19,22.78-1.62c7.76.91,35.16,10.9,35.16,10.9s3.6,10.12-5.95,25.92c-7.91,13.09-15.61,15.62-15.61,15.62S1001.61,396.74,986.4,470.69Z" style="fill:#739af0"/><path d="M902.55,407.65s16.09-3,22.39,1.11,8.16,10.57,3.62,13.21c-14.2,8.25-28.6-.87-28.6-.87Z" style="fill:#ffb27d"/><path d="M867.92,463.32c-13.07-4.7-22-9.73-20.93-13.95,1.55-6.08,12.74-52.78,23.08-96,3.06-5.6,5-8.95,5-8.95S894.68,434.12,867.92,463.32Z" style="fill:#4a82d3"/><path d="M888.92,282.29s-49.57,10.5-69.11,87.55a23.35,23.35,0,0,0,5.27,21.36c9,10,28.8,24.53,74.88,29.9,5,.58,5.71-12.18,5.71-12.18-.5,1-31.3-19.9-44.41-31.15-2.37-2-2.27-6.3-.56-8.91,4.43-6.76,11.86-18.45,14.36-24.44C878.7,335.67,902.77,286.26,888.92,282.29Z" style="fill:#ffb27d"/><path d="M888.28,277.25s-29.15,2.08-52.91,33.76c0,0,8,29.14,45.79,36.92C881.16,347.93,904.43,295.46,888.28,277.25Z" style="fill:#739af0"/><path d="M1029.86,585.81a481.55,481.55,0,0,1-28.07,56l-.46.33c-2.77,0-26.58-.54-28.91-10.1,0,0-.76-33.09.55-59.37C976.76,576.26,991.39,587.11,1029.86,585.81Z" style="fill:#ebf2f9"/><path d="M1099.81,603.88a52.33,52.33,0,0,1-30,9.58s-18.16-20-33.46-39.36c17.22-7.44,35.4-23.85,41.67-29.8C1089.27,572.77,1099.81,603.88,1099.81,603.88Z" style="fill:#ebf2f9"/><path d="M1038.34,677.82a5.48,5.48,0,0,1-6.41,4.36l-.1,0c-7.13-1.45-20-4.21-25.38-6.16-7.59-2.76-22.15-11.36-29.74-14.12-2.6-1-8.87-3.48-12.93-5.13a4.52,4.52,0,0,1-2.64-5.46,95.18,95.18,0,0,1,7.65-19.09,7,7,0,0,1,3.17-2.81,29.49,29.49,0,0,0,18.45,6.66,40.24,40.24,0,0,0,16.64-3.5c.51,1.06,10.86,21.93,18.19,24.6C1031.84,659.54,1040.47,665.84,1038.34,677.82Z" style="fill:#aa443e"/><path d="M1146.67,604.12a5.48,5.48,0,0,1-2.3,7.39l-.11,0c-6.51,3.28-18.34,9.11-23.75,10.89-7.67,2.53-24.42,4.8-32.09,7.33-2.64.87-9.12,2.76-13.33,4a4.53,4.53,0,0,1-5.46-2.64,95.59,95.59,0,0,1-5.81-19.74,7,7,0,0,1,.74-4.17,29.44,29.44,0,0,0,18.62-6.19,40.32,40.32,0,0,0,10.89-13c1.06.52,22.11,10.49,29.52,8C1130.25,593.81,1140.93,593.4,1146.67,604.12Z" style="fill:#aa443e"/><path d="M1042.19,562.38s-3.71,21.54-17.72,31.45c0,0-56.87-7.82-109.81-21.21-38.92-9.84-75.73-22.69-86.26-37.65-24.87-35.3,13-78.26,13-78.26s73,35.23,152.06,78.39C1009.65,543.94,1026.08,553.12,1042.19,562.38Z" style="fill:#e1251b"/><path d="M956.63,593.83s-16.89,1.37-23.28,7.76-16.07,25-9.18,32.35,39.76-8.78,40.68-11.43S956.63,593.83,956.63,593.83Z" style="fill:#ffb27d"/><path d="M1042.19,562.38s-3.71,21.54-17.72,31.45c0,0-56.87-7.82-109.81-21.21,24.89-21.64,57.41-32.41,78.81-37.52C1009.65,543.94,1026.08,553.12,1042.19,562.38Z" style="fill:#e1251b"/><path d="M1235.14,330.1c-11.37-27-86.14-28-86.14-28-38,99.82-47.18,165.29-57.24,207.37a21.63,21.63,0,0,0-4.55,0S1033.77,530.28,954.35,588c0,0-8.31,22.78,6.61,41.43,0,0,136.86-30.21,175.08-52.62h.06l1.15-.74c.58-.36,1.13-.71,1.66-1.07C1263.22,494.21,1251.4,368.73,1235.14,330.1Z" style="fill:#e1251b"/><path d="M917.05,809.05s38.38,13.26,33,57.46c0,0-3.55,17.94-14.59,10s-5.87-6.49-21.65-17.37-26.07-28-24.28-41.65Z" style="fill:#ffb27d"/><path d="M918.81,811.89l-22.73,27.58a4.57,4.57,0,0,1-4.37,1.57c-21.3-3.91-94.63-51.17-118.65-70.46a69.94,69.94,0,0,1-5.94-5.2c-9-9.12-39.84-54.14-61.76-94.24-12.62-23.09-22.26-44.55-23-56.57-2.73-42.93,19.85-103,19.85-103C769,534.86,776,588.19,776,588.19L813,726l104.9,78.39A5.22,5.22,0,0,1,919,811.7Z" style="fill:#739af0"/><path d="M773.06,770.58a69.94,69.94,0,0,1-5.94-5.2c-9-9.12-39.84-54.14-61.76-94.24-2.84-24.23-.89-47,9.1-62.85C714.46,608.29,771.24,708.2,773.06,770.58Z" style="fill:#4a82d3"/><path d="M734.58,1167.61,723.22,1215l-7,29.31-23.39,97.55s-20,6.17-40.84,0a355.91,355.91,0,0,1-7.93-72.54c-.12-21.06,1.82-44.31,8-66.26a152.63,152.63,0,0,1,9.75-25.91C694.76,1109.7,734.58,1167.61,734.58,1167.61Z" style="fill:#ffb27d"/><path d="M754,1370.32H644s-1.73-16.63,3.11-32.54a56,56,0,0,1,2.61-7s24.54,5.56,45.7,0c0,0,19.9,17,31.93,22.14S752.69,1355.3,754,1370.32Z" style="fill:#2b478b"/><path d="M723.22,1215l-7,29.31a169.36,169.36,0,0,1-72.16,25c-.12-21.06,1.82-44.31,8-66.26,10.11-5.13,20.4-7.82,29.17-6.29C703,1200.54,716,1208.51,723.22,1215Z" style="fill:#e8945b"/><path d="M696.87,1370.32H644s-1.73-16.63,3.11-32.54C660.4,1341.91,687.39,1352.26,696.87,1370.32Z" style="fill:#1f396d"/><path d="M647,1167.61,635.59,1215l-7,29.31-23.39,97.55s-20,6.17-40.84,0a355.91,355.91,0,0,1-7.93-72.54c-.12-21.06,1.82-44.31,8-66.26a152.63,152.63,0,0,1,9.75-25.91C607.13,1109.7,647,1167.61,647,1167.61Z" style="fill:#ffb27d"/><path d="M562.12,1330.78s24.54,5.57,45.7,0c0,0,19.9,17,31.93,22.15s25.32,2.37,26.58,17.39H556.4S554.11,1348.38,562.12,1330.78Z" style="fill:#2b478b"/><path d="M635.59,1215l-7,29.31a169.63,169.63,0,0,1-72.16,25c-.12-21.06,1.82-44.31,8-66.26,10.11-5.13,20.4-7.82,29.16-6.29C615.36,1200.54,628.33,1208.51,635.59,1215Z" style="fill:#e8945b"/><path d="M757.52,1211.83a22.4,22.4,0,0,1-21.63,16.55H559.62a22.78,22.78,0,0,1-22.78-22.78c0-.58,0-1.16.07-1.74,1.85-24,8.46-63.22,11.35-89.7,1.19-11,1.75-19.8,1-24.4C531.52,972,516.59,833.37,518.4,806.86c.26-3.73.44-5.66.44-5.66s12.83-1.08,32.36-1.84c56.77-2.24,170.08-1.85,188.9,35.27,19.18,37.81,30.76,288.89,30.76,288.89C773.67,1147,763.76,1188.71,757.52,1211.83Z" style="fill:#c65447"/><path d="M548.26,1114.16c1.19-11,1.75-19.8,1-24.4C531.52,972,516.59,833.37,518.4,806.86c.26-3.73.44-5.66.44-5.66s12.83-1.08,32.36-1.84c29.37,17.3,48.48,46.77,48.48,46.77S593.76,1066.44,548.26,1114.16Z" style="fill:#b2443b"/><path d="M657.71,316.27c-14.08-3.52-22.26,7.58-22.26,20.64a23.65,23.65,0,0,0,23.64,23.66h0c13.07,0,23.66-15.14,23.66-28.2S670.39,319.44,657.71,316.27Z" style="fill:#b2443b"/><path d="M650.44,451.74s-73.35-66.07-7-112.84c0,0,19.82-5.28,29.89-3.39,0,0,36.1-10.56,57.22,14s30.3,42.24,12.2,64.12S650.44,451.74,650.44,451.74Z" style="fill:#c65447"/><path d="M566.27,850.73s18.11,36.34-16.7,64.11c0,0-15.09,10.32-17.41-3.09s.36-8.74-3.28-27.56,1-38.27,11.84-46.73Z" style="fill:#ffb27d"/><path d="M710.53,451.12s-.9,9.9-2.58,23.27c-.82,6.53-1.82,13.89-3,21.34-.84,5.34-1.77,10.74-2.78,15.89l-22.71,76.7L626.14,502s12.53-10.36,29.51-66.56c.17-.6.28-.92.28-.92Z" style="fill:#ffb27d"/><path d="M741.6,829.53c.7,8.62-1.49,10.19-1.49,10.19s-32.79,11.88-115.25,7.77q-13.4-.66-25.18-1.36c-53.15-3.14-81.58-6.41-81.58-6.41s-43.53-100.48,38.26-224.27a396.24,396.24,0,0,1,32.79-42.77c13.24-15.11,16.17-35.32,21.18-54.53,1.43-5.5-2.72-6.72-.65-11.91,0,0,14.92-4.22,16.46-4.22,8.47,7.46,19.64,22,47.37,24.84,18.75,2,26.09-8.61,28.76-14.94,7.15,2.58,14.56,7,20.62,9.95,50.25,24.13,54.87,70.92,54.87,70.92s-46.18,151.84-49,170.8C727.43,772,738,785.14,741.6,829.53Z" style="fill:#739af0"/><path d="M708,474.39c-.82,6.53-3.58,24.4-4.76,31.85-56.47-22-49.07-64.92-47.54-70.78.17-.6.28-.92.28-.92S685.81,455.75,708,474.39Z" style="fill:#e8945b"/><path d="M720.05,482s-65.22,2.1-65.9-38.54-9.55-67.74,32.06-70.79,50,12.32,53.49,25.82S737,480.38,720.05,482Z" style="fill:#ffb27d"/><path d="M725.75,366.55s-4.09,67.85-83.61,60.57C642.14,427.12,643.83,333.16,725.75,366.55Z" style="fill:#c65447"/><path d="M710.53,373.3s22.28,27.57,32.39,36.37C742.92,409.67,767.7,374.11,710.53,373.3Z" style="fill:#c65447"/><path d="M710.53,373.3s20,33.8,30.13,42.6C740.66,415.9,767.66,374.11,710.53,373.3Z" style="fill:#c65447"/><path d="M599.68,846.13c-53.15-3.14-81.58-6.41-81.58-6.41s-43.53-100.48,38.26-224.27C572.91,654,612,757.18,599.68,846.13Z" style="fill:#4a82d3"/><path d="M626.14,502s-63.1,13-91.21,45.5c-21.54,24.94-45.1,146.89-45.1,167,0,19.26,22.13,121.63,35.95,141.26A4.57,4.57,0,0,0,530,857.7l35.53-3.7a5.22,5.22,0,0,0,4.65-5.72c0-.09,0-.19,0-.28l-20-129.41,70.08-124.3S661.58,545.32,626.14,502Z" style="fill:#739af0"/><path d="M896.83,1335.29s5.34,10.43,17.19,13c7.46,1.62,13.84,5.51,17.82,11a7,7,0,0,1-5.59,11.07H866.14a8.64,8.64,0,0,1-8.64-8.64,8.44,8.44,0,0,1,0-.87c.44-4.45.91-9.64,1.12-13.62.44-8.68,9.14-15.67,9.14-15.67Z" style="fill:#2c3a64"/><path d="M910.44,1183.68c2.51,45.72-3.72,149.61-3.72,149.61s-4.19,11.59-30.66,14.35a79.39,79.39,0,0,1-26.94-2.2q-8-36.89-14.83-70.41c-32.67-160.31-45.42-259.33-45.42-259.33l129-30s-5.65,90.5-7.31,152.21C910,1157.2,909.89,1173.66,910.44,1183.68Z" style="fill:#35488b"/><path d="M917.85,985.72s-5.65,90.5-7.31,152.21L834.29,1275c-32.67-160.31-45.42-259.33-45.42-259.33Z" style="fill:#2c3a64"/><path d="M788.18,778.44s-49.91-22.72-87.67-2.85-14.68,183.92,39.32,199.82h0S841,1007.75,788.18,778.44Z" style="fill:#35488b"/><path d="M932.55,1024a5.16,5.16,0,0,0-.49-.64,83.34,83.34,0,0,1-4.67-9.83h0c10-49.15,3.28-77.57,3.28-77.57,1.19-14.31,9.74-114.28-9.94-160.59C911.24,753,895.34,753,895.34,753s3.73,35.7,1.27,54.89c-2.26,17.61,14.54,182.69,17.31,209.67h-.09l.79,27.43,8-1.9a6,6,0,0,0,1-.36h0a5.67,5.67,0,0,0,2.45-2.15l6.51-10.3a5.8,5.8,0,0,0-.09-6.29Zm-15.31-4.46.34-.2-.17.22a.85.85,0,0,1-.17-.06Z" style="fill:#e8945b"/><path d="M792.18,1335.29s5.34,10.43,17.19,13c7.46,1.62,13.84,5.51,17.82,11a7,7,0,0,1-5.59,11.07H761.49a8.64,8.64,0,0,1-8.64-8.64,8.44,8.44,0,0,1,0-.87c.44-4.45.91-9.64,1.12-13.62.44-8.68,9.14-15.67,9.14-15.67Z" style="fill:#2c3a64"/><path d="M834,569.73c-12.86,0-29,5.54-37.67,14-9.21,8.94-18.79,9.4-25.6,20-7.11,11-11.52,22.45-8,37.93,3.91,16.92,3.11,33.29,13.74,45.71,5.26,6.15,13.83,6.85,19.81,12.5,11,10.37,23.44,13.65,37.67,13.65,26.82,0,43.51-15.89,57.24-35.69,11-15.86,8.82-26.55,11.4-40.12C910.76,594.92,875.14,569.73,834,569.73Z" style="fill:#35488b"/><path d="M871.76,741.89,820.49,768.1l-10.27-35.57s6.53-12.31,9.48-32.48a135.19,135.19,0,0,0,1.06-29.27l41.78,21.39a79.31,79.31,0,0,0-1.67,9.56,70.16,70.16,0,0,0,.73,22.35C863.1,730.85,866.14,737.32,871.76,741.89Z" style="fill:#ffb27d"/><path d="M753,999.63s-9.75,129.21-7.58,335.12a79.35,79.35,0,0,0,26,7.59c26.48,2.64,32.92-7.86,32.92-7.86S831.43,1234,838.2,1188.7c6.24-41.74,47.23-192.39,47.23-192.39Z" style="fill:#35488b"/><path d="M905.65,745.48c-4.56-2.14-18.89-7.93-40.4-11.47.22,7.38-1.71,14.31-14.65,16-17.21,2.24-32.59-9.5-40.38-17.49h0s-12.14,1.3-26.29,4.4A164.59,164.59,0,0,0,762.46,743c-8.27,3-15.41,6.83-19.22,11.5h0c-13.24,16.25-35,65.19-35,65.19S744.5,833.13,753.65,841l.21,1.75,5.68,47.13L742.6,983.74a14.4,14.4,0,0,0-.22,2.45A13.84,13.84,0,0,0,753,999.63s1.46.24,4.13.61c17.92,2.52,90.66,11.19,147.7-4.29A27.7,27.7,0,0,0,925,967l-9.3-116.68c5-.85,10.69-1.76,15.34-2.27,3.88-.42,7-.57,8.28-.18C939.33,847.84,932.88,756.72,905.65,745.48Z" style="fill:#e1251b"/><path d="M798,918.63c-.72,32.76-22.18,71.24-40.93,81.61-2.67-.37-4.13-.61-4.13-.61a13.84,13.84,0,0,1-10.59-13.44,14.4,14.4,0,0,1,.22-2.45l16.91-93.87-5.68-47.13.42-1.26S799.3,860.77,798,918.63Z" style="fill:#e1251b"/><path d="M931.05,848c-4.77.53-15.37,2.27-15.37,2.27l-5.37-48.87S928.25,835.87,931.05,848Z" style="fill:#e1251b"/><path d="M745.62,967,750,942.59C824.36,835,830,815.74,796.55,767.44,787,753.61,769.56,745,762.46,743a164.59,164.59,0,0,1,21.47-6.08c7.06,3.31,13.55,6.57,18.58,10.93C904.55,836.2,745.62,967,745.62,967Z" style="fill:#35488b"/><path d="M832.44,828.93c-29.11,2-33.14,31.84-33.14,31.84s-48.85,4.43-56.07,7.64c0,0,4-10.72,11-26.93-6.37-6.26-27.31-15.57-41.17-19.86-10.57,27-14.63,53.67-8.7,79.41a6.22,6.22,0,0,0,5.8,4.79c15.55.73,66.92.47,104.54-30.68l.66-.18c9-.53,17.46-9.48,20.7-21.24s3.51-8.16,6-16.44S832.44,828.93,832.44,828.93Z" style="fill:#ffb27d"/><path d="M861.6,724.08c-23.76-.63-41.9-24-41.9-24l41.17,1.68C860.16,707.89,859.84,716.19,861.6,724.08Z" style="fill:#e8945b"/><path d="M863.86,709.73s-52.49,6.4-53.61-30.58S831,618.23,845.61,618.5c29.12.55,33.92,12.31,37.29,24.56S888,707.13,863.86,709.73Z" style="fill:#ffb27d"/><path d="M849.82,688.42s1.14,4.61,12.64,3.76c0,0,9.65-.71,9.29-5.79C871.75,686.39,862.35,682.89,849.82,688.42Z" style="fill:#fff"/><path d="M858.6,618.84s-44.85,0-34.54,30.77C830.55,669,809,672,809,672l-10.39-31.11,6.51-24.24Z" style="fill:#35488b"/><path d="M1468,599.35c-11.18-18.56-18.12-101.42-26.18-123.61-5.1-14-18.75-30.79-17.31-31.83-14.52-8.56-53.82-12.68-53.82-12.68v.08c-1.53-.32-3-.64-4.52-.93-4.71-.95-9.16-3.7-9.69-8.47a2.48,2.48,0,0,0-.07-.72,147.62,147.62,0,0,1-.66-17.08.74.74,0,0,1,0-.21c.13-8.5.78-14.81.78-14.81h-.16l-50.94-8.19c-.7,15.9-1.62,27.74-2.6,36.57a14,14,0,0,1-13,12.43c-1,.05-2,.12-3.07.19h0s-32.84-1.28-45.4,2.56a20.72,20.72,0,0,0-3.2,1.32c.76.8-120.94,122.78-117.8,136.9s56.54,94.35,75.9,109.13h19.38s-43-98-43.51-105.9c-.81-11.63,108-76.7,108-88.56,0-4.31,30.34-5.62,50.18-5.47,21,.17,60.59-10.81,60.59-10.81s17.1,129.63,38.72,168.07c17,30.32,92.35,108,92.35,108l15.88-14.08S1495.09,644.3,1468,599.35Z" style="fill:#ffb27d"/><path d="M1313.84,1098.22c9.19,90.54-1.95,209.1-1.95,209.1H1280.7c-47.11-123.9-48.52-201.63-51.21-230.82-1.46-15.9-22.93-79.47-42.21-140.62-16.1-51-30.65-100.41-30.75-118.91-.21-42.39,42-110.38,42-110.38s60.68,23.41,98.13,46.54c12.5,7.72,22.07,15.27,25.34,21.67,8.68,17,15.12,138.56-8,212.8-13.9,44.7-6.78,67.63-6.78,67.63A378.22,378.22,0,0,1,1313.84,1098.22Z" style="fill:#c65447"/><path d="M1314,987.6c-13.9,44.7-6.78,67.63-6.78,67.63a378.31,378.31,0,0,1,6.59,43L1187.28,935.88c-16.1-51-30.65-100.41-30.75-118.91-.21-42.39,42-110.38,42-110.38s60.68,23.41,98.13,46.54c12.5,7.72,22.07,15.27,25.34,21.67C1330.7,791.83,1337.14,913.36,1314,987.6Z" style="fill:#b2443b"/><path d="M1280.7,1307.32s-1.77,20.35-4.39,24.53-13.6,18.32-26.16,23-48.49,2.27-51.28,15.32h126.64s1.74-19.57-3.15-32.45-10.46-30.43-10.46-30.43Z" style="fill:#2b478b"/><path d="M1492.4,1302.73s14.16,19.35,17.65,27,26.51,40.17,23.72,40.44-64.19,0-64.19,0-6.28-15.32-5.58-25.79-8.37-30.33-6.63-41.68S1492.4,1302.73,1492.4,1302.73Z" style="fill:#2b478b"/><path d="M1492.4,1302.73h-35s-136.59-197.46-141.29-247.66c-5.87-62.79-49.74-310.61-49.74-310.61l140.12-43.62s12.24,31.49,22.51,63.24c4.47,13.85,8.56,27.75,11.1,39.1,5.61,25.07-10.18,119.79-21,187.12-5.33,33.17-9.43,59.7-9.16,68C1410.77,1083.41,1456.82,1086.66,1492.4,1302.73Z" style="fill:#c65447"/><path d="M1304.75,394.62q-.12,1.9-.24,3.69Q1304.63,396.53,1304.75,394.62Z" style="fill:#2b478b"/><path d="M1305.05,389.4c-.07,1.35-.15,2.67-.23,4C1304.9,392.07,1305,390.75,1305.05,389.4Z" style="fill:#2b478b"/><path d="M1305.46,380.88c0,1-.08,2-.13,2.93,0-1,.08-1.94.12-2.93Z" style="fill:#2b478b"/><path d="M1426,733.84c4.56,13.73-61.36,21.75-134.53,20.78-20.67-.27-39.89-2.78-55.73-6.89-33.49-8.66-51.92-24.42-37.21-41.13,4.18-4.75,50.56-71.12,50.56-71.12,2.73-5.94-.23-25.42-14.39-71.69-5.8-18.92,1.76-30.69,4.46-38.2h0c.92-2.62,1.28-4.71.29-6.41-6.34-10.95-15.48-21.51-23.76-29.92a234.9,234.9,0,0,0-19.87-18.11s27.15-29.6,42.33-37.2c15.64,16.39,49.57,45.77,92.17,46.1,36.75.28,72.46-20.43,94.21-36.13a15.19,15.19,0,0,1,3.86,3c13.59,15.94,17.46,44.69,17.46,44.69s-43.71,24.12-42.93,32c2.17,21.64,4.21,28,3.26,35.7v.07a52.43,52.43,0,0,1-2.26,9.41c-7.45,23.42-23.59,59.59-19.56,71.77C1385.42,643.74,1419.47,714.13,1426,733.84Z" style="fill:#2b478b"/><path d="M1241.38,432.61c.71-.21,1.47-.42,2.3-.6-.83.19-1.6.4-2.31.61Z" style="fill:#ffb27d"/><path d="M1358.85,426.73a12.12,12.12,0,0,0,3.92,2.59A12.12,12.12,0,0,1,1358.85,426.73Z" style="fill:#ffb27d"/><path d="M1362.77,429.32a16.85,16.85,0,0,0,1.68.61A14.68,14.68,0,0,1,1362.77,429.32Z" style="fill:#ffb27d"/><path d="M1537.87,731.22s26.78,6.93,30.44,10.67,14.16,32.77,10.47,33c-19.19,1.4-29.31-8.9-29.31-8.9-11.6-12.76-28.93-14.8-28.07-24.14S1537.87,731.22,1537.87,731.22Z" style="fill:#ffb27d"/><path d="M1196.27,680s-19.38,24.49-19.38,28.94,3.92,23,8.63,23.28,6.28-15.17,9.94-18.05,16.75-8.29,18.58-13.3,1.61-20.87,1.61-20.87Z" style="fill:#ffb27d"/><path d="M1303,415.88c24.06-3.1,53.36-26.82,53.36-26.82-17.1-9.27-31.93-10.17-43.46-7a43.85,43.85,0,0,0-7.67,2.91Z" style="fill:#e8945b"/><path d="M1294.32,392.55s59.52,19.87,71.32-17.39,27.43-59.79-10.07-74.05-49.43-2.39-56.4,9.09S1279.14,386.42,1294.32,392.55Z" style="fill:#ffb27d"/><path d="M1315.68,376.16s-2.2,4.32-13.44.83c0,0-9.43-2.92-7.91-7.89C1294.33,369.1,1304.49,367.77,1315.68,376.16Z" style="fill:#fff"/><path d="M1454,305.08c-6.66-8.57,15.22-26.23-29.24-47.47-33.73-16.1-44.18,8.3-47.26,21-20.06-11.45-52.79-44.41-73.66-22.94-25,25.72,2.11,48.35,2.11,48.35,9.48,6.91,14.09,5,28,8s5,19.08,6.08,24.49,10.55,16.35,23.36,10.82,11.34,15.59-.84,19.94c-3.47,1.23-7.08,20.65-2,21.46,4.23.69,19.51.84,21.06-11.63.92-7.39,10.32-11.26,20.29-18.9,6.9,6.56,16.59,9.91,21.94,9.14,7.88-1.13,8-7.45,24.83-18.7S1460.7,313.64,1454,305.08Z" style="fill:#c65447"/><path d="M1235.76,747.73c-33.49-8.66-51.92-24.42-37.21-41.13,4.18-4.75,50.56-71.12,50.56-71.12S1261.53,710.42,1235.76,747.73Z" style="fill:#233862"/><path d="M1452.87,1370.27l-5-537s-4.33-38.68-38.07-38.68c-36,0-38.07,38.68-38.07,38.68a4.09,4.09,0,0,0,4.21,3.34,4.36,4.36,0,0,0,4.51-3.34s1.59-29.82,29.35-29.82c26,0,29.35,29.82,29.35,29.82v537Z" style="fill:#233862"/><path d="M1434.51,1370.27h22.4l-2-23.41s.19-3.25-4.33-3.44c-4.21-.17-12.51-.77-13.3,1.77C1436.59,1347.43,1434.51,1370.27,1434.51,1370.27Z" style="fill:#233862"/><path d="M1409.51,766.14l-1.52,7.68s-38-.14-46.85,40.54c0,0-2.41,16.93,9.8,13.32s10.31-12.25,27.59-17,28.55-8.36,31.17-20.94l2.82-14Z" style="fill:#ffb27d"/><path d="M1543.77,433.19s-10,39.51-18.71,75.64c-3.49,14.55-6.75,28.55-9,39.19-2.34,10.94-3.68,18.34-3.16,19.16,7.53,12.23-6.23,86.77-17.11,113.84-1,2.4-2.29,5.22-3.88,8.34-15.21,29.83-55.73,88.39-55.73,88.39s-11.43,1.2-18.91-1.62c-6.24-2.37-10.5-10-10.5-10,3.63-5.83,18.29-74.73,37.15-113.35,8.07-16.53,20-169.84,35.59-190.49C1492.5,445.08,1543.77,433.19,1543.77,433.19Z" style="fill:#e1251b"/><path d="M1512.85,567.18c7.53,12.23-6.23,86.77-17.11,113.84-1,2.4-2.29,5.22-3.88,8.34-14.54-64.34,9.56-155.48,9.56-155.48C1507.44,536.26,1512.33,566.36,1512.85,567.18Z" style="fill:#ed7d2b"/><path d="M1618.22,1311.12s3.87,58.23-7.12,59c-1.46.11-55.77.11-55.77.11h-70.06s1.18-17.1,21.45-20.64,54.18-17.77,66.46-44.55C1586.09,1276.9,1618.22,1311.12,1618.22,1311.12Z" style="fill:#0f2949"/><path d="M1723.59,1311.12s3.87,58.23-7.13,59c-1.46.11-55.77.11-55.77.11h-70s1.18-17.1,21.44-20.64,54.18-17.77,66.46-44.55C1691.45,1276.9,1723.59,1311.12,1723.59,1311.12Z" style="fill:#163560"/><path d="M1621.54,1170.77c1.73,24.63,5.24,56.29,4,84.83-1.75,39.9-3,73.56-3,73.56-26.31,8.94-74.58-1.91-74.58-1.91s-17.13-100.85-31.23-181.35c-6.33-36.07-11.58-67.28-13.54-82-6.35-47.62,6.75-300.86,6.75-300.86s71.2-45.63,100.61-22.11,47.51,46.51.12,304.19C1607,1064.65,1617.68,1115.62,1621.54,1170.77Z" style="fill:#2b478b"/><path d="M1621.54,1170.77c1.73,24.63,4.9,64,3.65,92.57-24.75-26.19-73.53-81.45-108.49-117.44-6.33-36.07-11.58-67.28-13.54-82-6.35-47.62,6.75-300.86,6.75-300.86s71.2-45.63,100.61-22.11,47.51,46.51.12,304.19C1607,1064.65,1617.68,1115.62,1621.54,1170.77Z" style="fill:#233862"/><path d="M1574.25,768.17s6.4,253.5,16.39,300.5,62.13,262.16,62.13,262.16,48.87,4.45,74.41-6.49c0,0-1.62-99.65-10.29-158.19-8.09-54.7-22.62-104.7-20.53-124.47,27.45-260.56,7.63-282.09-23.5-303.28S1574.25,768.17,1574.25,768.17Z" style="fill:#2b478b"/><path d="M1670.87,790.36s-16.94,34,15.62,59.95c0,0,14.11,9.65,16.27-2.89s-.33-8.18,3.08-25.77-.95-35.79-11.07-43.71Z" style="fill:#ffb27d"/><path d="M1528.12,375.75s19.55,29.71,15.65,57.43l28.92,69.69,52.19-79.78s-27.57-30-37.86-70.91Z" style="fill:#ffb27d"/><path d="M1519.55,401.1s71.18,3.08,72.47-39.65,20.53-71.16-32.71-74.91c-43.78-3.09-58.33,15.17-62.23,29.33S1493.17,398.81,1519.55,401.1Z" style="fill:#ffb27d"/><path d="M1693.8,780.38c-15.29,1.43-36.34,3.19-61.89,4.79q-7.65.48-15.83.94c-77.12,4.32-107.78-8.17-107.78-8.17s-2-1.65-1.4-10.71c3.35-46.64,13.26-60.42,12.06-69.28-2.68-19.92-51-182.49-51-182.49s-1-51.36,56.17-75.46a135.78,135.78,0,0,1,19.55-6.5c2.51,6.65,9.36,17.75,26.9,15.7,25.93-3,44.39-18.3,52.3-26.14h2a152.84,152.84,0,0,1,4.79,16.95c4.68,20.18,7.42,41.42,19.81,57.29a436,436,0,0,1,31.62,46.25,385,385,0,0,1,19.25,37C1750.91,692.31,1711.8,778.69,1693.8,780.38Z" style="fill:#e1251b"/><path d="M1693.8,780.38c-15.29,1.43-36.34,3.19-61.89,4.79-7.45-125.54,43.71-246.11,43.71-246.11a46.57,46.57,0,0,1,5.48,4.53c8.91,8.66,15.11,21.5,19.25,37C1715.59,637.48,1702.83,730,1693.8,780.38Z" style="fill:#e1251b"/><path d="M1496.61,360.34s-13.86,55,9.65,62.72,85.94,1.54,85.92-65.86c0,0-32.76,19.54-48.41,19s-25.75-9.52-40.21-2.47C1503.56,373.77,1498.27,373.42,1496.61,360.34Z" style="fill:#c8d9e8"/><path d="M1624.88,423.09s49.75,1.12,76,35.33c20.14,26.21,41.44,166.84,41.44,188s-22.68,138-35.38,150.73a47.65,47.65,0,0,1-19.18,0,38.75,38.75,0,0,1-18.5-9s6.32-130.1,6.32-142.31c0-17.66-55.24-125.81-55.24-125.81S1591.73,468.59,1624.88,423.09Z" style="fill:#e1251b"/><path d="M1588.68,299.83c-1.2-4.36-6.58-6.65-6.58-6.65-40.08-17.47-69.37,1.64-69.37,1.64,24.57-33,83.87-26.06,96.36,3.69,20.39,48.57-16.91,58.69-16.91,58.69s-37.25-15.65-15.68-35.28c7.15-6.5,10.6-12.28,11.75-17.31h0A17.46,17.46,0,0,0,1588.68,299.83Z" style="fill:#c8d9e8"/><path d="M1525.16,386.49s-1.31,4.67-13,3.44c0,0-9.83-1-9.31-6.19C1502.84,383.74,1512.55,380.46,1525.16,386.49Z" style="fill:#fff"/></svg>