<?xml version="1.0" encoding="utf-8"?>
<!-- Generator: Adobe Illustrator 23.0.5, SVG Export Plug-In . SVG Version: 6.00 Build 0)  -->
<svg version="1.1" id="Capa_1" xmlns="http://www.w3.org/2000/svg" xmlns:xlink="http://www.w3.org/1999/xlink" x="0px" y="0px"
	 viewBox="0 0 90.7 85.6" style="enable-background:new 0 0 90.7 85.6;" xml:space="preserve">
<title>logo-higea</title>
<path style="fill:#E1251B;" d="M0.6,85.1V64.5h5.6v8h7.6v-8h5.5v20.6h-5.6v-8.4H6.1v8.4H0.6z"/>
<path style="fill:#E1251B;" d="M22.7,85.1V64.5h5.7v20.6H22.7z"/>
<path style="fill:#E1251B;" d="M41.5,77.5v-4.3h11c0,0.2,0,0.3,0,0.5v0.8c0.2,3-0.8,6-2.8,8.2c-2.1,2-5,3.1-7.9,2.9c-1.5,0-3-0.2-4.5-0.8
	c-1.3-0.5-2.5-1.3-3.5-2.3c-1-1-1.8-2.2-2.3-3.5c-0.5-1.4-0.7-2.8-0.7-4.2c0-1.5,0.2-2.9,0.8-4.3c0.5-1.3,1.3-2.5,2.4-3.5
	c1-1,2.2-1.8,3.6-2.3C39,64.2,40.5,64,42,64c1.9,0,3.7,0.4,5.3,1.2c1.6,0.8,2.9,2.1,3.9,3.6l-4.9,2.3c-0.5-0.7-1.2-1.3-2-1.8
	c-0.8-0.4-1.6-0.6-2.5-0.6c-1.5-0.1-3,0.6-4,1.7c-1,1.3-1.5,2.9-1.4,4.6c-0.1,1.7,0.4,3.3,1.4,4.6c1,1.1,2.5,1.8,4,1.7
	c1.3,0,2.5-0.3,3.6-1.1c0.9-0.6,1.5-1.7,1.7-2.8L41.5,77.5z"/>
<path style="fill:#E1251B;" d="M54.9,85.1V64.5h12.7V69h-7.2v3.6h6.7V77h-6.7v3.5h7.2v4.6H54.9z"/>
<path style="fill:#E1251B;" d="M69.4,85.1l7.1-20.6h7l7.1,20.6h-5.6l-1-3.7h-8L75,85.1H69.4z M77.3,77.5h5.6l-2.1-6.8c0-0.2-0.2-0.6-0.3-1
	c-0.1-0.5-0.3-1.1-0.4-1.8c0,0.5-0.3,1-0.4,1.4l-0.4,1.3L77.3,77.5z"/>
<path style="fill:#005CB9;" d="M74,37.3v4.3c0,8.4-6.8,15.2-15.2,15.2H17.2V15.2C17.2,6.8,24,0,32.4,0h26.4C67.2,0,74,6.8,74,15.2V37.3
	L74,37.3z M66.7,35.7V18.6c0-6.3-5.1-11.4-11.4-11.4c0,0,0,0,0,0H35.8c-6.3,0-11.4,5.1-11.4,11.4l0,0v31h31
	c6.1,0,11.1-4.8,11.4-10.9l0,0L66.7,35.7L66.7,35.7z"/>
<path style="fill:#FFFFFF;" d="M66.8,31.5v4.2l0,0v3l0,0c-0.2,6.1-5.3,10.9-11.4,10.9h-31v-31c0-6.3,5.1-11.4,11.4-11.4l0,0h19.6
	c6.3,0,11.4,5.1,11.4,11.3c0,0,0,0,0,0V31.5z"/>
<path style="fill:#E1251B;" d="M45.2,32.4h-3.6v-3.6c0.2-1.7-1.1-3.3-2.9-3.4c-1.7-0.2-3.3,1.1-3.4,2.9c0,0.2,0,0.4,0,0.6v3.6h-3.6
	c-1.7,0.2-3,1.7-2.9,3.4c0.1,1.5,1.3,2.7,2.9,2.9h3.6v3.6c0.2,1.7,1.7,3,3.4,2.9c1.5-0.1,2.7-1.3,2.9-2.9v-3.6h3.6
	c1.7,0,3.1-1.4,3.1-3.1C48.3,33.9,46.9,32.5,45.2,32.4z"/>
</svg>